<?xml version="1.0" encoding="iso-8859-1"?>
<!-- Uploaded to: SVG Repo, www.svgrepo.com, Generator: SVG Repo Mixer Tools -->
<!DOCTYPE svg PUBLIC "-//W3C//DTD SVG 1.1//EN" "http://www.w3.org/Graphics/SVG/1.1/DTD/svg11.dtd">
<svg fill="#667781" version="1.1" id="Capa_1" xmlns="http://www.w3.org/2000/svg" xmlns:xlink="http://www.w3.org/1999/xlink" 
	 width="24px" height="24px" viewBox="0 0 421.295 421.295"
	 xml:space="preserve">
<g>
	<g>
		<path d="M280.8,22.871c-15.355-1.026-32.94-1.539-52.268-1.539c-55.157,0-106.49,4.187-106.767,4.218
			c-2.386,0.096-58.838,2.559-96.877,49.779c-35.693,44.341-25.232,84.774-15.833,104.903c3.603,7.733,12.151,12.718,21.79,12.718
			c3.019,0,5.908-0.498,8.602-1.493l68.09-25.199c10.468-3.872,18.913-15.643,19.228-26.804l0.83-29.112
			c0.19-6.749,5.467-14.513,11.078-16.283c14.439-4.583,40.39-10.199,78.018-8.594c33.037,1.406,52.277,5.694,62.602,9.043
			c5.758,1.866,10.141,10.595,10.064,16.851l-0.341,26.307c-0.132,10.943,7.308,23.552,16.94,28.719l61.357,32.958
			c4.093,2.196,9.186,3.413,14.36,3.413c7.647,0,14.543-2.607,18.915-7.158c12.005-12.53,25.096-33.979,19.281-64.962
			C410.928,82.673,355.213,27.839,280.8,22.871z M392.059,187.389c-3.382,3.517-13.782,4.385-19.129,1.5l-61.367-32.958
			c-5.774-3.098-10.766-11.573-10.679-18.131l0.34-26.299c0.132-10.753-7.176-24.679-18.266-28.274
			c-15.823-5.126-38.562-8.46-65.755-9.615c-4.626-0.188-9.084-0.284-13.373-0.284c-32.296,0-55.198,5.121-68.723,9.425
			c-10.341,3.272-19.014,15.493-19.347,27.241l-0.828,29.112c-0.175,6.343-5.555,13.825-11.504,16.029l-68.083,25.2
			c-1.366,0.508-2.874,0.767-4.486,0.767c-4.969,0-9.402-2.361-11.045-5.878c-8.246-17.641-17.338-53.118,14.315-92.478
			c34.294-42.563,87.737-45.328,88.347-45.361c0.513-0.048,51.943-4.202,106.072-4.202c19.042,0,36.368,0.513,51.485,1.516
			c66.567,4.441,120.048,54.314,128.234,98.104C413.127,158.854,402.138,176.868,392.059,187.389z"/>
		<path d="M134.381,193.828c-14.899,0-27.017,12.119-27.017,27.025c0,14.898,12.118,27.02,27.017,27.02s27.01-12.121,27.01-27.02
			C161.399,205.947,149.28,193.828,134.381,193.828z M134.381,239.717c-10.405,0-18.88-8.459-18.88-18.869
			c0-10.405,8.468-18.883,18.88-18.883c10.413,0,18.873,8.468,18.873,18.883C153.254,231.258,144.794,239.717,134.381,239.717z"/>
		<path d="M207.212,193.828c-14.901,0-27.028,12.119-27.028,27.025c0,14.898,12.119,27.02,27.028,27.02
			c14.901,0,27.007-12.121,27.007-27.02C234.229,205.947,222.113,193.828,207.212,193.828z M207.212,239.717
			c-10.405,0-18.882-8.459-18.882-18.869c0-10.405,8.47-18.883,18.882-18.883c10.402,0,18.873,8.468,18.873,18.883
			C226.085,231.258,217.625,239.717,207.212,239.717z"/>
		<path d="M280.043,193.828c-14.898,0-27.02,12.119-27.02,27.025c0,14.898,12.121,27.02,27.02,27.02
			c14.899,0,27.01-12.121,27.01-27.02C307.053,205.947,294.942,193.828,280.043,193.828z M280.043,239.717
			c-10.404,0-18.88-8.459-18.88-18.869c0-10.405,8.465-18.883,18.88-18.883c10.405,0,18.87,8.468,18.87,18.883
			C298.913,231.258,290.448,239.717,280.043,239.717z"/>
		<path d="M134.381,269.871c-14.899,0-27.017,12.121-27.017,27.03c0,14.898,12.118,27.015,27.017,27.015s27.01-12.116,27.01-27.015
			C161.399,281.992,149.28,269.871,134.381,269.871z M134.381,315.765c-10.405,0-18.88-8.46-18.88-18.874
			c0-10.405,8.468-18.881,18.88-18.881c10.413,0,18.873,8.471,18.873,18.881C153.254,307.305,144.794,315.765,134.381,315.765z"/>
		<path d="M207.212,269.871c-14.901,0-27.028,12.121-27.028,27.03c0,14.898,12.119,27.015,27.028,27.015
			c14.901,0,27.007-12.116,27.007-27.015C234.229,281.992,222.113,269.871,207.212,269.871z M207.212,315.765
			c-10.405,0-18.882-8.46-18.882-18.874c0-10.405,8.47-18.881,18.882-18.881c10.402,0,18.873,8.471,18.873,18.881
			C226.085,307.305,217.625,315.765,207.212,315.765z"/>
		<path d="M280.043,269.871c-14.898,0-27.02,12.121-27.02,27.03c0,14.898,12.121,27.015,27.02,27.015
			c14.899,0,27.01-12.116,27.01-27.015C307.053,281.992,294.942,269.871,280.043,269.871z M280.043,315.765
			c-10.404,0-18.88-8.46-18.88-18.874c0-10.405,8.465-18.881,18.88-18.881c10.405,0,18.87,8.471,18.87,18.881
			C298.913,307.305,290.448,315.765,280.043,315.765z"/>
		<path d="M134.381,345.918c-14.899,0-27.017,12.121-27.017,27.025c0,14.898,12.118,27.02,27.017,27.02s27.01-12.121,27.01-27.02
			C161.399,358.04,149.28,345.918,134.381,345.918z M134.381,391.808c-10.405,0-18.88-8.46-18.88-18.87
			c0-10.404,8.468-18.88,18.88-18.88c10.413,0,18.873,8.466,18.873,18.88C153.254,383.348,144.794,391.808,134.381,391.808z"/>
		<path d="M207.212,345.918c-14.901,0-27.028,12.121-27.028,27.025c0,14.898,12.119,27.02,27.028,27.02
			c14.901,0,27.007-12.121,27.007-27.02C234.229,358.04,222.113,345.918,207.212,345.918z M207.212,391.808
			c-10.405,0-18.882-8.46-18.882-18.87c0-10.404,8.47-18.88,18.882-18.88c10.402,0,18.873,8.466,18.873,18.88
			C226.085,383.348,217.625,391.808,207.212,391.808z"/>
		<path d="M280.043,345.918c-14.898,0-27.02,12.121-27.02,27.025c0,14.898,12.121,27.02,27.02,27.02
			c14.899,0,27.01-12.121,27.01-27.02C307.053,358.04,294.942,345.918,280.043,345.918z M280.043,391.808
			c-10.404,0-18.88-8.46-18.88-18.87c0-10.404,8.465-18.88,18.88-18.88c10.405,0,18.87,8.466,18.87,18.88
			C298.913,383.348,290.448,391.808,280.043,391.808z"/>
	</g>
</g>
</svg>